<svg xmlns="http://www.w3.org/2000/svg" width="18.812" height="26.056" viewBox="0 0 20.379 23.36">
  <path id="Icon_color" data-name="Icon color" d="M15.851,23.36H4.528a2.45,2.45,0,0,1-2.264-2.6V14.275H1.132A1.225,1.225,0,0,1,0,12.978V9.085a2.45,2.45,0,0,1,2.264-2.6h.611a5.819,5.819,0,0,1-.611-2.6A3.675,3.675,0,0,1,5.661,0,6.359,6.359,0,0,1,10.19,3.166,6.36,6.36,0,0,1,14.718,0a3.675,3.675,0,0,1,3.4,3.893,5.781,5.781,0,0,1-.611,2.6h.611a2.45,2.45,0,0,1,2.264,2.6v3.893a1.225,1.225,0,0,1-1.132,1.3H18.115v6.489A2.45,2.45,0,0,1,15.851,23.36Zm-4.529-9.085v6.489h4.529V14.275H11.322Zm-6.793,0v6.489H9.058V14.275H4.528Zm6.793-5.191v2.6h6.793v-2.6Zm-9.058,0v2.6H9.058v-2.6ZM14.718,2.6c-1.238,0-3.4,2.475-3.4,3.894h2.264a2.069,2.069,0,0,0,1.269-.442,2.718,2.718,0,0,0,1-2.155A1.225,1.225,0,0,0,14.718,2.6Zm-9.057,0a1.225,1.225,0,0,0-1.133,1.3,2.451,2.451,0,0,0,2.265,2.6H9.058A4.4,4.4,0,0,0,7.824,4.011,3.552,3.552,0,0,0,5.661,2.6Z" fill="#393a62"/>
</svg>
