<svg xmlns="http://www.w3.org/2000/svg" width="18.812" height="26.056" viewBox="0 0 15.96 18.295">
  <path id="Icon_color" data-name="Icon color" d="M15.933.965l-5.31,17a.45.45,0,0,1-.416.335h-.142A.451.451,0,0,1,9.658,18L7.569,12.927a2.261,2.261,0,0,1,.3-2.242l2.655-3.328a.562.562,0,0,0,0-.7l-.336-.386a.4.4,0,0,0-.611,0l-2.9,3.044a1.6,1.6,0,0,1-1.956.345L.293,7.265A.518.518,0,0,1,0,6.8V6.636a.514.514,0,0,1,.292-.517L15.118.031a.4.4,0,0,1,.46.112l.23.264A.558.558,0,0,1,15.933.965Z" fill="#393a62"/>
</svg>
