<svg xmlns="http://www.w3.org/2000/svg" width="18.812" height="26.056" viewBox="0 0 18.812 26.056">
  <path id="Icon_color" data-name="Icon color" d="M3.323,26.056H2.967a.535.535,0,0,1-.4-.195L.341,23.412A1.444,1.444,0,0,1,0,22.487V1.3A1.245,1.245,0,0,1,1.176,0H17.636a1.245,1.245,0,0,1,1.176,1.3V22.538a1.37,1.37,0,0,1-.341.912l-2.246,2.358a.529.529,0,0,1-.4.2h-.356a.532.532,0,0,1-.4-.2L12.933,23.45a.557.557,0,0,0-.8,0l-2.128,2.358a.532.532,0,0,1-.4.2H9.245a.528.528,0,0,1-.4-.2L6.713,23.45a.557.557,0,0,0-.834,0L3.727,25.861A.531.531,0,0,1,3.323,26.056ZM5.291,13.028a.623.623,0,0,0-.588.652v1.3a.623.623,0,0,0,.588.651h4.7a.623.623,0,0,0,.588-.651v-1.3a.623.623,0,0,0-.588-.652Zm0-5.211a.623.623,0,0,0-.588.651v1.3a.623.623,0,0,0,.588.652h8.23a.623.623,0,0,0,.587-.652v-1.3a.622.622,0,0,0-.587-.651Z" fill="#73797D"/>
</svg>
