<svg xmlns="http://www.w3.org/2000/svg" width="21.9" height="16" viewBox="0 0 19.999 20.003">
  <path id="Icon_color" data-name="Icon color" d="M12.759,20a3.261,3.261,0,0,1-1.169-.217l-.46-.17a3.207,3.207,0,0,0-2.321,0l-.46.17A3.268,3.268,0,0,1,4.2,18.077l-.2-.45a3.305,3.305,0,0,0-1.62-1.679l-.45-.2A3.273,3.273,0,0,1,.217,11.6l.17-.46a3.2,3.2,0,0,0,0-2.32l-.17-.46a3.272,3.272,0,0,1,1.711-4.15l.45-.2A3.312,3.312,0,0,0,4,2.387l.23-.45A3.269,3.269,0,0,1,8.41.227L8.87.4a3.192,3.192,0,0,0,1.16.217A3.2,3.2,0,0,0,11.191.4l.46-.17A3.269,3.269,0,0,1,15.8,1.937l.2.45a3.316,3.316,0,0,0,1.621,1.62l.45.23a3.273,3.273,0,0,1,1.71,4.151l-.17.46a3.2,3.2,0,0,0,0,2.319l.17.491a3.272,3.272,0,0,1-1.71,4.15l-.45.2a3.31,3.31,0,0,0-1.681,1.62l-.2.45A3.277,3.277,0,0,1,12.759,20ZM6.529,9.616a.481.481,0,0,0-.35.151l-.53.53a.5.5,0,0,0,0,.71l2.381,2.35a.481.481,0,0,0,.7,0l5.621-5.621a.5.5,0,0,0,0-.689l-.53-.53a.5.5,0,0,0-.7,0L8.38,11.256l-1.5-1.49A.474.474,0,0,0,6.529,9.616Z" transform="translate(-0.001 0)"/>
</svg>
