<svg xmlns="http://www.w3.org/2000/svg" width="22" height="27" viewBox="0 0 22 27">
  <path id="Icon_color" data-name="Icon color" d="M11,27a2.728,2.728,0,0,1-2.75-2.7h5.5A2.728,2.728,0,0,1,11,27Zm9.625-5.4H1.375A1.364,1.364,0,0,1,0,20.25v-.8a1.348,1.348,0,0,1,.4-.945l1.141-1.12a4.037,4.037,0,0,0,1.21-2.861V10.8A8.05,8.05,0,0,1,4.4,5.94l1.237-1.62A4.167,4.167,0,0,1,8.937,2.7h.688V.676A.682.682,0,0,1,10.312,0h1.375a.683.683,0,0,1,.688.676V2.7h.688a4.167,4.167,0,0,1,3.3,1.621L17.6,5.94A8.05,8.05,0,0,1,19.25,10.8v3.726a4.034,4.034,0,0,0,1.209,2.861l1.142,1.12a1.348,1.348,0,0,1,.4.945v.8A1.364,1.364,0,0,1,20.625,21.6Z" fill="#505151"/>
</svg>
