<svg xmlns="http://www.w3.org/2000/svg" width="20.162" height="20.937" viewBox="0 0 20.162 20.937">
  <path id="Icon_color" data-name="Icon color" d="M17.922,20.937H2.24A2.225,2.225,0,0,1,0,18.734V4.407A2.225,2.225,0,0,1,2.24,2.2H3.36V.551A.557.557,0,0,1,3.92,0H5.04A.557.557,0,0,1,5.6.551V2.2h8.96V.551A.557.557,0,0,1,15.121,0h1.12A.557.557,0,0,1,16.8.551V2.2h1.12a2.225,2.225,0,0,1,2.24,2.2V18.734A2.225,2.225,0,0,1,17.922,20.937ZM2.24,6.612V18.734H17.922V6.612Zm8.4,8.816H9.52a.556.556,0,0,1-.559-.551v-1.1a.556.556,0,0,1,.559-.551h1.121a.556.556,0,0,1,.559.551v1.1A.556.556,0,0,1,10.641,15.428Zm-4.481,0H5.04a.557.557,0,0,1-.561-.551v-1.1a.557.557,0,0,1,.561-.551H6.16a.557.557,0,0,1,.561.551v1.1A.557.557,0,0,1,6.16,15.428Zm8.961-4.408H14a.556.556,0,0,1-.561-.55v-1.1A.556.556,0,0,1,14,8.816h1.12a.556.556,0,0,1,.561.55v1.1A.556.556,0,0,1,15.121,11.02Zm-4.48,0H9.52a.556.556,0,0,1-.559-.55v-1.1a.556.556,0,0,1,.559-.55h1.121a.556.556,0,0,1,.559.55v1.1A.556.556,0,0,1,10.641,11.02Zm-4.481,0H5.04a.556.556,0,0,1-.561-.55v-1.1a.556.556,0,0,1,.561-.55H6.16a.556.556,0,0,1,.561.55v1.1A.556.556,0,0,1,6.16,11.02Z" fill="#73797d"/>
</svg>
