<svg xmlns="http://www.w3.org/2000/svg" width="23.661" height="17.462" viewBox="0 0 23.661 17.462">
  <path id="Icon_color" data-name="Icon color" d="M11.9,17.462h-.138A12.085,12.085,0,0,1,4.7,15.181,13.128,13.128,0,0,1,.071,9.118,1.048,1.048,0,0,1,0,8.731,1.286,1.286,0,0,1,.071,8.32,13.129,13.129,0,0,1,4.705,2.274,12.091,12.091,0,0,1,11.749,0h.206a12.085,12.085,0,0,1,7.059,2.285,13.125,13.125,0,0,1,4.633,6.072,1.223,1.223,0,0,1,0,.374,1.05,1.05,0,0,1-.071.412,13.123,13.123,0,0,1-4.634,6.045A12.086,12.086,0,0,1,11.9,17.462ZM11.823,2.5A9.983,9.983,0,0,0,6.282,4.186,10.767,10.767,0,0,0,2.448,8.731a10.823,10.823,0,0,0,3.837,4.542,9.9,9.9,0,0,0,11.076,0A10.809,10.809,0,0,0,21.2,8.731a10.784,10.784,0,0,0-3.835-4.545A9.983,9.983,0,0,0,11.823,2.5Zm0,9.976A3.653,3.653,0,0,1,8.276,8.731,3.652,3.652,0,0,1,11.823,4.99a3.653,3.653,0,0,1,3.548,3.741A3.653,3.653,0,0,1,11.823,12.473Z" fill="#393a62"/>
</svg>
