<svg xmlns="http://www.w3.org/2000/svg" width="21" height="21" viewBox="0 0 21 21">
  <path id="Icon_color" data-name="Icon color" d="M16.334,21H4.666a2.336,2.336,0,0,1-2.333-2.333V12.833H1.167A1.168,1.168,0,0,1,0,11.667v-3.5A2.336,2.336,0,0,1,2.333,5.834h.63A4.694,4.694,0,0,1,2.333,3.5,3.5,3.5,0,0,1,5.834,0,6.615,6.615,0,0,1,10.5,2.847,6.616,6.616,0,0,1,15.166,0a3.5,3.5,0,0,1,3.5,3.5,4.664,4.664,0,0,1-.63,2.334h.63A2.336,2.336,0,0,1,21,8.167v3.5a1.168,1.168,0,0,1-1.167,1.167H18.667v5.834A2.336,2.336,0,0,1,16.334,21Zm-4.667-8.167v5.834h4.667V12.833H11.667Zm-7,0v5.834H9.333V12.833H4.666Zm7-4.666V10.5h7V8.167Zm-9.333,0V10.5h7V8.167ZM15.166,2.333c-1.276,0-3.5,2.225-3.5,3.5H14A2.327,2.327,0,0,0,16.334,3.5,1.168,1.168,0,0,0,15.166,2.333Zm-9.332,0A1.168,1.168,0,0,0,4.666,3.5,2.337,2.337,0,0,0,7,5.834H9.333A3.773,3.773,0,0,0,8.062,3.606,3.763,3.763,0,0,0,5.834,2.333Z" fill="#73797d"/>
</svg>
