<svg xmlns="http://www.w3.org/2000/svg" width="44" height="43" viewBox="0 0 44 43">
  <path id="Icon_color" data-name="Icon color" d="M34.223,43H9.777a4.839,4.839,0,0,1-4.888-4.777V26.277H2.444A2.42,2.42,0,0,1,0,23.889V16.723a4.839,4.839,0,0,1,4.888-4.777h1.32a9.445,9.445,0,0,1-1.32-4.779A7.26,7.26,0,0,1,12.223,0,13.91,13.91,0,0,1,22,5.829,13.912,13.912,0,0,1,31.777,0a7.26,7.26,0,0,1,7.335,7.166,9.384,9.384,0,0,1-1.32,4.779h1.32A4.839,4.839,0,0,1,44,16.723v7.166a2.42,2.42,0,0,1-2.444,2.389H39.112V38.223A4.839,4.839,0,0,1,34.223,43ZM24.444,26.277V38.223h9.779V26.277H24.444Zm-14.667,0V38.223h9.779V26.277H9.777Zm14.667-9.555V21.5H39.112V16.723Zm-19.556,0V21.5H19.556V16.723ZM31.777,4.777c-2.673,0-7.333,4.555-7.333,7.168h4.888a4.978,4.978,0,0,0,2.739-.813,4.748,4.748,0,0,0,2.152-3.967A2.421,2.421,0,0,0,31.777,4.777Zm-19.554,0A2.421,2.421,0,0,0,9.777,7.166a4.841,4.841,0,0,0,4.891,4.779h4.888c0-1.208-1.022-2.958-2.664-4.562S13.46,4.777,12.223,4.777Z" fill="#393a62"/>
</svg>
