<svg xmlns="http://www.w3.org/2000/svg" width="20.998" height="18" viewBox="0 0 20.998 18">
  <path id="Icon_color" data-name="Icon color" d="M11.968,18a8.838,8.838,0,0,1-5.129-1.63A.514.514,0,0,1,6.628,16a.5.5,0,0,1,.14-.391l.72-.73a.5.5,0,0,1,.63-.059A6.885,6.885,0,0,0,11.98,16H12A7,7,0,1,0,5,9H7.364a.49.49,0,0,1,.353.15l.2.2a.5.5,0,0,1,0,.71L4.387,13.6a.509.509,0,0,1-.709,0L.148,10.06a.5.5,0,0,1,0-.71l.2-.2A.49.49,0,0,1,.7,9H3a9,9,0,1,1,9,9Zm2.945-5.052a.507.507,0,0,1-.356-.148l-3.29-3.29a.533.533,0,0,1-.15-.35V4.5a.5.5,0,0,1,.5-.5h.76a.5.5,0,0,1,.354.147.5.5,0,0,1,.147.354V8.64l2.92,2.92a.5.5,0,0,1,0,.71l-.53.53A.5.5,0,0,1,14.913,12.948Z" fill="#73797d"/>
</svg>
