<svg xmlns="http://www.w3.org/2000/svg" width="21" height="21" viewBox="0 0 21 21">
  <path id="Icon_color" data-name="Icon color" d="M8.75,21H2.333A2.336,2.336,0,0,1,0,18.667V2.333A2.336,2.336,0,0,1,2.333,0H8.75a.584.584,0,0,1,.584.584V1.75a.584.584,0,0,1-.584.583H2.333V18.667H8.75a.584.584,0,0,1,.584.583v1.167A.584.584,0,0,1,8.75,21Zm5.583-3.5a.586.586,0,0,1-.414-.172l-.828-.817a.582.582,0,0,1,0-.828l4.025-4.013H5.25a.584.584,0,0,1-.584-.583V9.916a.584.584,0,0,1,.584-.583H17.115L13.09,5.32a.571.571,0,0,1,0-.817l.828-.828a.583.583,0,0,1,.827,0l6,5.985a.9.9,0,0,1,.256.618v.443a.881.881,0,0,1-.256.618l-6,5.985A.586.586,0,0,1,14.333,17.5Z" fill="#73797d"/>
</svg>
