<svg xmlns="http://www.w3.org/2000/svg" width="20.24" height="19.461" viewBox="0 0 20.24 19.461">
  <path id="Icon_color" data-name="Icon color" d="M.506,19.461A.5.5,0,0,1,0,18.975V3.892A3.977,3.977,0,0,1,4.048,0H16.193A3.977,3.977,0,0,1,20.24,3.892v7.785a3.977,3.977,0,0,1-4.048,3.893H6.014A3.085,3.085,0,0,0,3.9,16.4L.86,19.316A.507.507,0,0,1,.506,19.461ZM4.048,1.946A1.988,1.988,0,0,0,2.024,3.892v11.56l.465-.408a5.132,5.132,0,0,1,3.573-1.421h10.13a1.989,1.989,0,0,0,2.024-1.947V3.892a1.988,1.988,0,0,0-2.024-1.946Z" fill="#393a62"/>
</svg>
