<svg xmlns="http://www.w3.org/2000/svg" width="20.998" height="20.043" viewBox="0 0 20.998 20.043">
  <path id="Icon_color" data-name="Icon color" d="M18.665,20.043H2.333A2.284,2.284,0,0,1,0,17.816V2.227A2.284,2.284,0,0,1,2.333,0H18.665A2.284,2.284,0,0,1,21,2.227v15.59A2.284,2.284,0,0,1,18.665,20.043ZM6.742,12.248a2.339,2.339,0,0,0-2.077,1.225L3.593,15.489a.807.807,0,0,0,.035.816.893.893,0,0,0,.748.4H16.623a.883.883,0,0,0,.739-.4.808.808,0,0,0,.031-.811l-1.061-2.016a2.339,2.339,0,0,0-2.077-1.225ZM10.5,3.34A3.427,3.427,0,0,0,7,6.681a3.426,3.426,0,0,0,3.5,3.34A3.426,3.426,0,0,0,14,6.681,3.427,3.427,0,0,0,10.5,3.34Z" fill="#73797d"/>
</svg>
