<svg xmlns="http://www.w3.org/2000/svg" width="21.996" height="16" viewBox="0 0 21.996 16">
  <path id="Icon_color" data-name="Icon color" d="M11,16a8.008,8.008,0,0,1-4-1.072.519.519,0,0,1-.239-.371.5.5,0,0,1,.14-.42l.73-.731a.5.5,0,0,1,.355-.149.5.5,0,0,1,.235.059,5.952,5.952,0,0,0,2.775.69H11A6,6,0,0,0,17,8H14.631a.493.493,0,0,1-.353-.15l-.2-.2a.5.5,0,0,1,0-.711L17.608,3.4a.509.509,0,0,1,.71,0l3.53,3.543a.5.5,0,0,1,0,.711l-.2.2a.49.49,0,0,1-.353.15H19a8,8,0,0,1-8,8ZM4.033,12.749a.5.5,0,0,1-.355-.144L.148,9.061a.5.5,0,0,1,0-.711l.2-.2A.49.49,0,0,1,.7,8H3A8,8,0,0,1,15,1.073a.524.524,0,0,1,.26.371.5.5,0,0,1-.139.42l-.741.741a.507.507,0,0,1-.357.146.512.512,0,0,1-.232-.056,5.847,5.847,0,0,0-2.774-.7H11A6.01,6.01,0,0,0,5,8H7.364a.49.49,0,0,1,.353.15l.2.2a.5.5,0,0,1,0,.711L4.388,12.6A.5.5,0,0,1,4.033,12.749Z"/>
</svg>
