<svg xmlns="http://www.w3.org/2000/svg" width="22.999" height="14.946" viewBox="0 0 22.999 14.946">
  <path id="Icon_color" data-name="Icon color" d="M4.018,14.946a.572.572,0,0,1-.4-.165l-3.45-3.45a.585.585,0,0,1,0-.817l3.45-3.45a.575.575,0,0,1,.978.414v2.3h8.625a.575.575,0,0,1,.574.574V11.5a.576.576,0,0,1-.574.575H4.594v2.3a.576.576,0,0,1-.576.567ZM18.969,8.069a.575.575,0,0,1-.574-.59v-2.3H9.769A.576.576,0,0,1,9.194,4.6V3.454a.576.576,0,0,1,.575-.575h8.625V.579a.575.575,0,0,1,.977-.414l3.451,3.45a.588.588,0,0,1,.011.828L19.383,7.893A.578.578,0,0,1,18.969,8.069Z" transform="translate(0.001 0)" fill="#0a0b0c"/>
</svg>
