<svg xmlns="http://www.w3.org/2000/svg" width="18.537" height="19.057" viewBox="0 0 18.537 19.057">
  <path id="ic_settings_24px" d="M18.621,12.462a7.426,7.426,0,0,0,.067-.934,7.426,7.426,0,0,0-.067-.934l2.011-1.572a.481.481,0,0,0,.114-.61l-1.906-3.3a.479.479,0,0,0-.581-.21l-2.373.953a6.962,6.962,0,0,0-1.61-.934L13.914,2.4a.465.465,0,0,0-.467-.4H9.636a.465.465,0,0,0-.467.4L8.807,4.925a7.321,7.321,0,0,0-1.61.934L4.824,4.906a.465.465,0,0,0-.581.21l-1.906,3.3a.47.47,0,0,0,.114.61l2.011,1.572a7.557,7.557,0,0,0-.067.934,7.557,7.557,0,0,0,.067.934L2.451,14.035a.481.481,0,0,0-.114.61l1.906,3.3a.479.479,0,0,0,.581.21L7.2,17.2a6.962,6.962,0,0,0,1.61.934l.362,2.525a.465.465,0,0,0,.467.4h3.811a.465.465,0,0,0,.467-.4l.362-2.525a7.321,7.321,0,0,0,1.61-.934l2.373.953a.465.465,0,0,0,.581-.21l1.906-3.3a.481.481,0,0,0-.114-.61Zm-7.08,2.4a3.335,3.335,0,1,1,3.335-3.335A3.339,3.339,0,0,1,11.541,14.864Z" transform="translate(-2.271 -2)" fill="#393a62"/>
</svg>
