<svg xmlns="http://www.w3.org/2000/svg" width="17.998" height="18.001" viewBox="0 0 17.998 18.001">
  <path id="Icon_color" data-name="Icon color" d="M9,18H9A9,9,0,1,1,15.357,2.618l1.491-1.49A.492.492,0,0,1,17.2.978h.3a.5.5,0,0,1,.5.5v5a.5.5,0,0,1-.5.5h-5a.5.5,0,0,1-.5-.5v-.29a.488.488,0,0,1,.149-.36l1.781-1.78A6.979,6.979,0,1,0,8.714,15.971c.1,0,.207.007.31.007a7,7,0,0,0,6.984-6.53.5.5,0,0,1,.5-.47h1a.516.516,0,0,1,.36.159.5.5,0,0,1,.131.37A9.01,9.01,0,0,1,9,18Zm2.907-5.075a.5.5,0,0,1-.356-.148L8.262,9.488a.524.524,0,0,1-.149-.35V4.478a.5.5,0,0,1,.5-.5h.76a.5.5,0,0,1,.5.5v4.14l2.922,2.92a.5.5,0,0,1,0,.71l-.53.53A.5.5,0,0,1,11.91,12.926Z" transform="translate(-0.002 0)" fill="#393a62"/>
</svg>
