<svg xmlns="http://www.w3.org/2000/svg" width="21.9" height="16" viewBox="0 0 25.323 25.323">
  <path id="Icon_color" data-name="Icon color" d="M22.51,25.323H2.813A2.817,2.817,0,0,1,0,22.51V4.22A4.225,4.225,0,0,1,4.22,0H19.7A2.817,2.817,0,0,1,22.51,2.813H4.22a1.407,1.407,0,1,0,0,2.813H22.51a2.817,2.817,0,0,1,2.813,2.815V22.51A2.817,2.817,0,0,1,22.51,25.323ZM12.662,11.255a1.408,1.408,0,0,0-1.407,1.407v5.627A1.409,1.409,0,0,0,12.662,19.7H22.51V11.255Zm3.517,5.627H14.772a.7.7,0,0,1-.7-.7V14.772a.7.7,0,0,1,.7-.7h1.407a.7.7,0,0,1,.7.7v1.407A.7.7,0,0,1,16.179,16.882Z" fill="#0a0b0c"/>
</svg>
