<svg xmlns="http://www.w3.org/2000/svg" width="19.129" height="38.258" viewBox="0 0 19.129 38.258">
  <path id="Path" d="M12.753,3.188V1.594A1.594,1.594,0,0,0,11.158,0H7.97A1.594,1.594,0,0,0,6.376,1.594V3.188A6.376,6.376,0,0,0,0,9.564v2.582a6.376,6.376,0,0,0,2.327,4.91l10.935,9.022a.7.7,0,0,1,.287.606V29.49H5.579V26.3a1.594,1.594,0,0,0-1.594-1.594H1.594A1.594,1.594,0,0,0,0,26.3v2.391a6.376,6.376,0,0,0,6.376,6.376v1.594A1.594,1.594,0,0,0,7.97,38.258h3.188a1.594,1.594,0,0,0,1.594-1.594V35.069a6.376,6.376,0,0,0,6.376-6.376V26.111A6.376,6.376,0,0,0,16.8,21.2L5.866,12.179a.7.7,0,0,1-.287-.606V8.767h7.97v3.188a1.594,1.594,0,0,0,1.594,1.594h2.391a1.594,1.594,0,0,0,1.594-1.594V9.564A6.376,6.376,0,0,0,12.753,3.188Z" fill="#393a62"/>
</svg>
