<svg xmlns="http://www.w3.org/2000/svg" width="26.684" height="33.587" viewBox="0 0 26.684 33.587">
  <path id="Path" d="M25.861,27.709H14.61l1.78-8.867L22.3,17.129a1.679,1.679,0,0,0,1.209-1.612V12.159a.873.873,0,0,0-1.075-.806l-4.8,1.377L19.95,1.142A.84.84,0,0,0,19.144,0H11.453A1.679,1.679,0,0,0,9.807,1.344L6.952,15.651,1.209,17.3A1.679,1.679,0,0,0,0,18.909v3.359a.873.873,0,0,0,1.075.806l4.635-1.31L3.56,32.579a.84.84,0,0,0,.806,1.008h19.95a1.679,1.679,0,0,0,1.646-1.343l.705-3.527a.84.84,0,0,0-.806-1.008Z" fill="#393a62"/>
</svg>
