<svg xmlns="http://www.w3.org/2000/svg" width="30.681" height="32.888" viewBox="0 0 30.681 32.888">
  <path id="Path" d="M19.706,5.826a10.543,10.543,0,0,1,6.569,2.2,1.642,1.642,0,0,0,2.168-.164l1.741-1.774a1.511,1.511,0,0,0,.493-1.248,1.708,1.708,0,0,0-.624-1.182A16.422,16.422,0,0,0,3.613,13.216H1.642A1.642,1.642,0,0,0,0,14.858v3.284a1.642,1.642,0,0,0,1.642,1.642H3.613a16.422,16.422,0,0,0,26.275,9.557,1.708,1.708,0,0,0,.624-1.182,1.511,1.511,0,0,0-.493-1.248l-1.741-1.774a1.642,1.642,0,0,0-2.168-.164,10.543,10.543,0,0,1-6.569,2.2,10.707,10.707,0,0,1-9.951-7.39H21.479a2.5,2.5,0,0,0,2.2-1.347l2-4.04a.789.789,0,0,0-.723-1.182H9.59A10.707,10.707,0,0,1,19.706,5.826Z" fill="#393a62"/>
</svg>
